<?xml version="1.0" encoding="utf-8"?>
<!-- Generator: Adobe Illustrator 25.0.0, SVG Export Plug-In . SVG Version: 6.00 Build 0)  -->
<svg version="1.1" id="Layer_1" xmlns="http://www.w3.org/2000/svg" xmlns:xlink="http://www.w3.org/1999/xlink" x="0px" y="0px"
	 viewBox="0 0 16 16" style="enable-background:new 0 0 16 16;" xml:space="preserve">
<style type="text/css">
	.st0{fill:none;stroke:#EEEEEE;stroke-width:0.9394;stroke-miterlimit:10;}
	.st1{fill:#30E291;}
</style>
<g id="Layer_1_1_">
	<path class="st0" d="M8,0.5C3.9,0.5,0.5,3.9,0.5,8s3.4,7.5,7.5,7.5s7.5-3.4,7.5-7.5S12.1,0.5,8,0.5z"/>
</g>
<g id="Layer_2_1_">
	<path class="st1" d="M4.4,7.5c-0.3-0.3-0.3-0.8,0-1s0.8-0.3,1,0L8,9.1l2.5-2.5c0.3-0.3,0.8-0.3,1,0c0.3,0.3,0.3,0.8,0,1l-3,3
		c-0.3,0.3-0.8,0.3-1,0L4.4,7.5z"/>
</g>
</svg>
