<svg width="14" height="14" viewBox="0 0 14 14" fill="none" xmlns="http://www.w3.org/2000/svg">
<g id="Property 1=Variant2">
<path id="Vector" d="M6.075 5.61562C5.893 5.7373 5.73674 5.89364 5.61516 6.0757C5.49357 6.25777 5.40903 6.462 5.36638 6.67674C5.28023 7.11041 5.36989 7.56055 5.61562 7.92813C5.86136 8.2957 6.24306 8.5506 6.67674 8.63675C7.11041 8.7229 7.56055 8.63324 7.92812 8.3875C8.2957 8.14176 8.5506 7.76007 8.63675 7.32639C8.7229 6.89271 8.63324 6.44257 8.3875 6.075C8.14176 5.70743 7.76007 5.45253 7.32639 5.36638C6.89271 5.28023 6.44257 5.36989 6.075 5.61562ZM10.5219 3.47813C10.3594 3.31563 10.1625 3.1875 9.94687 3.10313C9.38125 2.88125 8.14688 2.89062 7.35 2.9C7.22187 2.9 7.10313 2.90313 7 2.90313C6.89687 2.90313 6.775 2.90313 6.64375 2.9C5.84688 2.89062 4.61875 2.87813 4.05312 3.10313C3.8375 3.1875 3.64375 3.31563 3.47813 3.47813C3.3125 3.64062 3.1875 3.8375 3.10313 4.05312C2.88125 4.61875 2.89375 5.85625 2.9 6.65312C2.9 6.78125 2.90313 6.9 2.90313 7C2.90313 7.1 2.90313 7.21875 2.9 7.34688C2.89375 8.14375 2.88125 9.38125 3.10313 9.94687C3.1875 10.1625 3.31563 10.3563 3.47813 10.5219C3.64062 10.6875 3.8375 10.8125 4.05312 10.8969C4.61875 11.1188 5.85313 11.1094 6.65 11.1C6.77813 11.1 6.89687 11.0969 7 11.0969C7.10313 11.0969 7.225 11.0969 7.35625 11.1C8.15312 11.1094 9.38125 11.1219 9.94687 10.8969C10.1625 10.8125 10.3563 10.6844 10.5219 10.5219C10.6875 10.3594 10.8125 10.1625 10.8969 9.94687C11.1219 9.38437 11.1094 8.15312 11.1 7.35312C11.1 7.22187 11.0969 7.1 11.0969 6.99687C11.0969 6.89375 11.0969 6.775 11.1 6.64062C11.1094 5.84375 11.1219 4.6125 10.8969 4.04688C10.8125 3.83125 10.6844 3.6375 10.5219 3.47188V3.47813ZM8.425 4.86875C8.99024 5.24668 9.3822 5.83368 9.51465 6.50061C9.6471 7.16753 9.50918 7.85976 9.13125 8.425C8.94412 8.70488 8.70369 8.94516 8.42369 9.13212C8.1437 9.31908 7.82962 9.44907 7.49939 9.51465C6.83247 9.6471 6.14024 9.50918 5.575 9.13125C5.00976 8.75373 4.61763 8.16713 4.48489 7.5005C4.35215 6.83387 4.48967 6.14181 4.86719 5.57656C5.24471 5.01132 5.83131 4.6192 6.49794 4.48646C7.16457 4.35372 7.85663 4.49123 8.42188 4.86875H8.425ZM9.3375 4.82812C9.24062 4.7625 9.1625 4.66875 9.11563 4.55937C9.06875 4.45 9.05937 4.33125 9.08125 4.2125C9.10313 4.09375 9.1625 3.99062 9.24375 3.90625C9.325 3.82188 9.43437 3.76562 9.55 3.74375C9.66563 3.72188 9.7875 3.73125 9.89688 3.77812C10.0063 3.825 10.1 3.9 10.1656 3.99687C10.2312 4.09375 10.2656 4.20937 10.2656 4.32812C10.2656 4.40625 10.25 4.48438 10.2219 4.55625C10.1938 4.62813 10.1469 4.69375 10.0938 4.75C10.0406 4.80625 9.97187 4.85 9.9 4.88125C9.82812 4.9125 9.75 4.92812 9.67188 4.92812C9.55313 4.92812 9.4375 4.89375 9.34062 4.82812H9.3375ZM14 2C14 0.896875 13.1031 0 12 0H2C0.896875 0 0 0.896875 0 2V12C0 13.1031 0.896875 14 2 14H12C13.1031 14 14 13.1031 14 12V2ZM11.1562 11.1562C10.5719 11.7406 9.8625 11.925 9.0625 11.9656C8.2375 12.0125 5.7625 12.0125 4.9375 11.9656C4.1375 11.925 3.42812 11.7406 2.84375 11.1562C2.25938 10.5719 2.075 9.8625 2.0375 9.0625C1.99062 8.2375 1.99062 5.7625 2.0375 4.9375C2.07812 4.1375 2.25938 3.42812 2.84375 2.84375C3.42812 2.25938 4.14062 2.075 4.9375 2.0375C5.7625 1.99062 8.2375 1.99062 9.0625 2.0375C9.8625 2.07812 10.5719 2.25938 11.1562 2.84375C11.7406 3.42812 11.925 4.1375 11.9625 4.9375C12.0094 5.75938 12.0094 8.23125 11.9625 9.05937C11.9219 9.85938 11.7406 10.5687 11.1562 11.1531V11.1562Z" fill="#3D5567"/>
</g>
</svg>
