<svg width="14" height="14" viewBox="0 0 14 14" fill="none" xmlns="http://www.w3.org/2000/svg">
<g id="Frame">
<g clip-path="url(#clip0_286_1882)">
<g id="Group">
<path id="Vector" d="M3.09961 6.80005C2.79961 6.80005 2.59961 7.00005 2.59961 7.30005C2.59961 7.60005 2.79961 7.80005 3.09961 7.80005C3.39961 7.80005 3.59961 7.60005 3.59961 7.30005C3.49961 7.00005 3.29961 6.80005 3.09961 6.80005Z" fill="#3D5567"/>
<path id="Vector_2" d="M7.7998 7.69995C8.07595 7.69995 8.2998 7.47609 8.2998 7.19995C8.2998 6.92381 8.07595 6.69995 7.7998 6.69995C7.52366 6.69995 7.2998 6.92381 7.2998 7.19995C7.2998 7.47609 7.52366 7.69995 7.7998 7.69995Z" fill="#3D5567"/>
<path id="Vector_3" d="M14 0H0V14H5.5H6.7C6.7 14 6.8 14 7 14C7.2 14 7.3 14 7.3 14H8.5H14V0ZM4.4 7.4C4.4 8.5 3.2 8.5 3.2 8.5C2.8 8.5 2.5 8.2 2.5 8.2V8.4H1.7V5C1.8 5 2.5 5 2.5 5V6.3C2.7 6 3.3 6 3.3 6C4.6 6.1 4.4 7.4 4.4 7.4ZM5.9 6.1V8.5H5.1V6.1C5.1 5.8 4.7 5.7 4.7 5.7V4.8C6 4.9 5.9 6.1 5.9 6.1ZM7.8 8.5C7 8.5 6.4 7.9 6.4 7.2C6.4 6.5 7.1 6 7.8 6C8.6 6 9.2 6.6 9.2 7.3C9.2 8 8.6 8.5 7.8 8.5ZM12.4 8.5C12.4 8.5 12.4 9.7 11.2 9.7H10.8V8.9H11C11 8.9 11.5 8.9 11.5 8.2C11.5 8.2 11.4 8.5 10.7 8.5C10.7 8.5 9.7 8.4 9.7 7.4V7.1C9.7 7.1 9.7 6.1 10.8 6C10.8 6 11.2 6 11.5 6.3V6H12.3V8.5H12.4Z" fill="#3D5567"/>
<path id="Vector_4" d="M11 7.69995C11.2761 7.69995 11.5 7.47609 11.5 7.19995C11.5 6.92381 11.2761 6.69995 11 6.69995C10.7239 6.69995 10.5 6.92381 10.5 7.19995C10.5 7.47609 10.7239 7.69995 11 7.69995Z" fill="#3D5567"/>
</g>
</g>
</g>
<defs>
<clipPath id="clip0_286_1882">
<rect width="14" height="14" rx="2" fill="white"/>
</clipPath>
</defs>
</svg>
