<svg width="14" height="14" viewBox="0 0 14 14" fill="none" xmlns="http://www.w3.org/2000/svg">
<g id="Property 1=Variant2">
<path id="Vector" d="M2 0C0.896875 0 0 0.896875 0 2V12C0 13.1031 0.896875 14 2 14H5.06875V9.44375H3.41875V7H5.06875V5.94688C5.06875 3.225 6.3 1.9625 8.975 1.9625C9.48125 1.9625 10.3562 2.0625 10.7156 2.1625V4.375C10.5281 4.35625 10.2 4.34375 9.79062 4.34375C8.47812 4.34375 7.97188 4.84062 7.97188 6.13125V7H10.5844L10.1344 9.44375H7.96875V14H12C13.1031 14 14 13.1031 14 12V2C14 0.896875 13.1031 0 12 0H2Z" fill="#3D5567"/>
</g>
</svg>
